HIERARCHY
ROOT Hips
{
  OFFSET -4.35178 90.3298 111.633
  CHANNELS 6 Xposition Yposition Zposition Zrotation Xrotation Yrotation
  JOINT LeftUpLeg
  {
    OFFSET 0.103456 1.85784 10.5485
    CHANNELS 6 Xposition Yposition Zposition Zrotation Xrotation Yrotation
    JOINT LeftLeg
    {
      OFFSET 43.5 -4.2e-05 0
      CHANNELS 6 Xposition Yposition Zposition Zrotation Xrotation Yrotation
      JOINT LeftFoot
      {
        OFFSET 42.3722 1.9e-05 0
        CHANNELS 6 Xposition Yposition Zposition Zrotation Xrotation Yrotation
        JOINT LeftToe
        {
          OFFSET 17.3 0 0
          CHANNELS 6 Xposition Yposition Zposition Zrotation Xrotation Yrotation
          End Site
          {
            OFFSET 0 0 0
          }
        }
      }
    }
  }
  JOINT RightUpLeg
  {
    OFFSET 0.103456 1.85782 -10.5485
    CHANNELS 6 Xposition Yposition Zposition Zrotation Xrotation Yrotation
    JOINT RightLeg
    {
      OFFSET 43.5 -2.7e-05 0
      CHANNELS 6 Xposition Yposition Zposition Zrotation Xrotation Yrotation
      JOINT RightFoot
      {
        OFFSET 42.3723 0 0
        CHANNELS 6 Xposition Yposition Zposition Zrotation Xrotation Yrotation
        JOINT RightToe
        {
          OFFSET 17.3 0 1.7e-05
          CHANNELS 6 Xposition Yposition Zposition Zrotation Xrotation Yrotation
          End Site
          {
            OFFSET 0 0 0
          }
        }
      }
    }
  }
  JOINT Spine
  {
    OFFSET 6.90197 -2.60373 0
    CHANNELS 6 Xposition Yposition Zposition Zrotation Xrotation Yrotation
    JOINT Spine1
    {
      OFFSET 12.5881 0 0
      CHANNELS 6 Xposition Yposition Zposition Zrotation Xrotation Yrotation
      JOINT Spine2
      {
        OFFSET 12.3432 -1.8e-05 0
        CHANNELS 6 Xposition Yposition Zposition Zrotation Xrotation Yrotation
        JOINT Neck
        {
          OFFSET 25.8329 2.3e-05 0
          CHANNELS 6 Xposition Yposition Zposition Zrotation Xrotation Yrotation
          JOINT Head
          {
            OFFSET 11.7666 0 0
            CHANNELS 6 Xposition Yposition Zposition Zrotation Xrotation Yrotation
            End Site
            {
              OFFSET 0 0 0
            }
          }
        }
        JOINT LeftShoulder
        {
          OFFSET 19.7459 -1.48035 6.0001
          CHANNELS 6 Xposition Yposition Zposition Zrotation Xrotation Yrotation
          JOINT LeftArm
          {
            OFFSET 11.2841 1.8e-05 -2e-05
            CHANNELS 6 Xposition Yposition Zposition Zrotation Xrotation Yrotation
            JOINT LeftForeArm
            {
              OFFSET 33 -1.3e-05 1.9e-05
              CHANNELS 6 Xposition Yposition Zposition Zrotation Xrotation Yrotation
              JOINT LeftHand
              {
                OFFSET 25.2 3.2e-05 1.1e-05
                CHANNELS 6 Xposition Yposition Zposition Zrotation Xrotation Yrotation
                End Site
                {
                  OFFSET 0 0 0
                }
              }
            }
          }
        }
        JOINT RightShoulder
        {
          OFFSET 19.7461 -1.48036 -6.00008
          CHANNELS 6 Xposition Yposition Zposition Zrotation Xrotation Yrotation
          JOINT RightArm
          {
            OFFSET 11.2841 0 0
            CHANNELS 6 Xposition Yposition Zposition Zrotation Xrotation Yrotation
            JOINT RightForeArm
            {
              OFFSET 33.0001 1.6e-05 0
              CHANNELS 6 Xposition Yposition Zposition Zrotation Xrotation Yrotation
              JOINT RightHand
              {
                OFFSET 25.1998 0.000123 0.000432
                CHANNELS 6 Xposition Yposition Zposition Zrotation Xrotation Yrotation
                End Site
                {
                  OFFSET 0 0 0
                }
              }
            }
          }
        }
      }
    }
  }
}
MOTION
Frames:	7
Frame Time:	0.0333333
19.7817 91.512 0.113802 -18.5183 85.2181 111.049 0.103456 1.85784 10.5485 10.3073 1.3813 -178.248 43.5 -4.2e-05 1e-05 -5.40173 -8.25684 -1.18797 42.3722 1.9e-05 -7.10543e-15 75.9838 0.714906 3.26892 17.3 4.44089e-16 3e-06 21.4546 -1e-06 0.003093 0.103456 1.85782 -10.5485 4.41709 -10.0908 171.716 43.5 -2.7e-05 4e-06 -17.1531 11.3492 2.33722 42.3723 -3.55271e-15 1e-05 82.9058 8.10757 -5.6518 17.3 -6e-06 1.7e-05 21.4546 -1.9e-05 -0.003116 6.90197 -2.60373 -3e-06 7.13386 -0.0154571 -0.015691 12.5881 1e-05 8e-06 4.2474 0.0252025 -0.00559453 12.3432 -1.8e-05 -5e-06 3.92858 0.0866295 0.0034454 25.8329 2.3e-05 7e-06 5.19259 -2.21857 -6.45327 11.7666 -8e-06 -6e-06 -19.1343 -6.70405 10.8303 19.7459 -1.48035 6.0001 176.252 -1.47964 -93.7836 11.2841 1.8e-05 -2e-05 13.8535 -21.2396 24.1582 33 -1.3e-05 1.9e-05 -21.6772 -0.499997 -19.5146 25.2 3.2e-05 1.1e-05 9.82442 28.8518 -3.96868 19.7461 -1.48036 -6.00008 177.689 5.45842 90.84 11.2841 3.55271e-15 -1e-06 2.66558 13.7112 -15.6867 33.0001 1.6e-05 -1e-06 -22.8388 0.741558 17.7805 25.1998 0.000123 0.000432 8.18751 -12.3613 2.17466 
19.7821 91.511 0.113519 -18.5183 85.2181 111.049 0.103456 1.85784 10.5485 10.3111 1.3813 -178.248 43.5 -4.2e-05 1e-05 -5.40893 -8.25684 -1.18797 42.3722 1.9e-05 0 75.9813 0.73046 3.26893 17.3 8.88178e-16 3e-06 21.4546 -1e-06 0.003093 0.103456 1.85782 -10.5485 4.43261 -10.1146 171.723 43.5 -2.7e-05 4e-06 -17.1144 11.3412 2.35139 42.3723 1.77636e-15 1e-05 82.8905 8.14035 -5.60856 17.3 -6e-06 1.7e-05 21.4546 -1.9e-05 -0.003116 6.90197 -2.60373 -3e-06 7.13386 -0.0154571 -0.015691 12.5881 1e-05 8e-06 4.25369 0.0252025 -0.00559453 12.3432 -1.8e-05 -5e-06 3.93485 0.0866295 0.0034454 25.8329 2.3e-05 7e-06 5.19415 -2.20476 -6.45321 11.7666 -8e-06 -6e-06 -19.1383 -6.70375 10.8437 19.7459 -1.48035 6.0001 176.226 -1.47975 -93.79 11.2841 1.8e-05 -2e-05 13.7948 -21.2391 24.0659 33 -1.3e-05 1.9e-05 -21.7129 -0.53267 -19.4972 25.2 3.2e-05 1.1e-05 9.86109 28.8419 -3.96831 19.7461 -1.48036 -6.00008 177.713 5.47351 90.817 11.2841 0 -1e-06 2.6093 13.6019 -15.6011 33.0001 1.6e-05 -1e-06 -22.9714 0.741476 17.8003 25.1998 0.000123 0.000432 8.20161 -12.3732 2.17476 
19.7827 91.5108 0.112329 -18.4328 85.2307 110.962 0.103456 1.85784 10.5485 10.3179 1.37304 -178.241 43.5 -4.2e-05 1e-05 -5.39223 -8.26747 -1.188 42.3722 1.9e-05 0 76.0067 0.715351 3.26892 17.3 0 3e-06 21.4546 -1e-06 0.003093 0.103456 1.85782 -10.5485 4.4326 -10.123 171.727 43.5 -2.7e-05 4e-06 -17.0969 11.3325 2.35165 42.3723 1.77636e-15 1e-05 82.8979 8.13244 -5.5835 17.3 -6e-06 1.7e-05 21.4546 -1.9e-05 -0.003116 6.90197 -2.60373 -3e-06 7.13662 -0.0154571 -0.015691 12.5881 1e-05 8e-06 4.25928 0.0252025 -0.00559453 12.3432 -1.8e-05 -5e-06 3.94045 0.0866295 0.0034454 25.8329 2.3e-05 7e-06 5.19535 -2.19387 -6.45384 11.7666 -8e-06 -6e-06 -19.1584 -6.70861 10.8619 19.7459 -1.48035 6.0001 176.222 -1.50459 -93.7535 11.2841 1.8e-05 -2e-05 13.6628 -21.1568 23.9499 33 -1.3e-05 1.9e-05 -21.7294 -0.488112 -19.4821 25.2 3.2e-05 1.1e-05 9.79267 28.8731 -3.9695 19.7461 -1.48036 -6.00008 177.676 5.50793 90.8256 11.2841 0 -1e-06 2.58971 13.5948 -15.5497 33.0001 1.6e-05 -1e-06 -23.0356 0.744823 17.8155 25.1998 0.000123 0.000432 8.26218 -12.3811 2.17483 
19.781 91.5106 0.110445 -18.3383 85.2474 110.855 0.103456 1.85784 10.5485 10.3212 1.35602 -178.214 43.5 -4.2e-05 1e-05 -5.38574 -8.27118 -1.18802 42.3722 1.9e-05 -7.10543e-15 76.0431 0.678219 3.26889 17.3 2.22045e-15 3e-06 21.4546 -1e-06 0.003093 0.103456 1.85782 -10.5485 4.45778 -10.1452 171.742 43.5 -2.7e-05 4e-06 -17.054 11.3227 2.35278 42.3723 0 1e-05 82.9088 8.12703 -5.54784 17.3 -6e-06 1.7e-05 21.4546 -1.9e-05 -0.003116 6.90197 -2.60373 -3e-06 7.14534 -0.0154571 -0.0154635 12.5881 1e-05 8e-06 4.27668 0.0252025 -0.00471081 12.3432 -1.8e-05 -5e-06 3.95779 0.0866295 0.00413065 25.8329 2.3e-05 7e-06 5.19923 -2.15593 -6.46476 11.7666 -8e-06 -6e-06 -19.1666 -6.68127 10.896 19.7459 -1.48035 6.0001 176.221 -1.50987 -93.7406 11.2841 1.8e-05 -2e-05 13.6859 -21.1553 23.9438 33 -1.3e-05 1.9e-05 -21.8156 -0.51168 -19.4657 25.2 3.2e-05 1.1e-05 9.7918 28.8709 -3.96941 19.7461 -1.48036 -6.00008 177.657 5.5305 90.7958 11.2841 3.55271e-15 -1e-06 2.54409 13.5292 -15.4873 33.0001 1.6e-05 -1e-06 -23.0525 0.708588 17.822 25.1998 0.000123 0.000432 8.24942 -12.4043 2.18146 
19.7805 91.5095 0.114277 -18.3917 85.2704 110.904 0.103456 1.85784 10.5485 10.3127 1.34029 -178.209 43.5 -4.2e-05 1e-05 -5.37176 -8.28112 -1.18805 42.3722 1.9e-05 7.10543e-15 76.0456 0.667619 3.28175 17.3 1.33227e-15 3e-06 21.4546 -1e-06 0.003093 0.103456 1.85782 -10.5485 4.47676 -10.1613 171.753 43.5 -2.7e-05 4e-06 -16.9733 11.3068 2.35424 42.3723 0 1e-05 82.8791 8.17386 -5.49818 17.3 -6e-06 1.7e-05 21.4546 -1.9e-05 -0.003116 6.90197 -2.60373 -3e-06 7.15059 -0.0154571 -0.015236 12.5881 1e-05 8e-06 4.28708 0.0252025 -0.00509562 12.3432 -1.8e-05 -5e-06 3.96813 0.0866295 0.00357891 25.8329 2.3e-05 7e-06 5.2039 -2.11038 -6.47862 11.7666 -8e-06 -6e-06 -19.1583 -6.65499 10.9518 19.7459 -1.48035 6.0001 176.216 -1.51992 -93.7307 11.2841 1.8e-05 -2e-05 13.6803 -21.1554 23.9496 33 -1.3e-05 1.9e-05 -21.7719 -0.494796 -19.4752 25.2 3.2e-05 1.1e-05 9.78792 28.8652 -3.9692 19.7461 -1.48036 -6.00008 177.631 5.55074 90.7884 11.2841 0 -1e-06 2.50509 13.5583 -15.519 33.0001 1.6e-05 -1e-06 -22.9769 0.627819 17.8258 25.1998 0.000123 0.000432 8.23175 -12.4473 2.19301 
19.7693 91.5081 0.121071 -18.4649 85.2959 110.962 0.103456 1.85784 10.5485 10.3009 1.33761 -178.193 43.5 -4.2e-05 1e-05 -5.33587 -8.30243 -1.18811 42.3722 1.9e-05 7.10543e-15 76.0328 0.677154 3.29384 17.3 -1.33227e-15 3e-06 21.4546 -1e-06 0.003093 0.103456 1.85782 -10.5485 4.5107 -10.1792 171.769 43.5 -2.7e-05 4e-06 -16.8731 11.2924 2.35592 42.3723 0 1e-05 82.8438 8.19674 -5.46072 17.3 -6e-06 1.7e-05 21.4546 -1.9e-05 -0.003116 6.90197 -2.60373 -3e-06 7.15237 -0.0154571 -0.0161862 12.5881 1e-05 8e-06 4.2907 0.0230328 -0.00689527 12.3432 -1.8e-05 -5e-06 3.97176 0.0847987 0.00186134 25.8329 2.3e-05 7e-06 5.21881 -2.09835 -6.48064 11.7666 -8e-06 -6e-06 -19.1329 -6.64947 10.9812 19.7459 -1.48035 6.0001 176.188 -1.54494 -93.7308 11.2841 1.8e-05 -2e-05 13.7009 -21.1884 24.0207 33 -1.3e-05 1.9e-05 -21.7158 -0.491821 -19.4887 25.2 3.2e-05 1.1e-05 9.81906 28.8627 -3.96859 19.7461 -1.48036 -6.00008 177.603 5.56626 90.7625 11.2841 0 -1e-06 2.47224 13.5603 -15.5368 33.0001 1.6e-05 -1e-06 -22.8792 0.562926 17.815 25.1998 0.000123 0.000432 8.18469 -12.4728 2.19119 
19.7612 91.5089 0.130424 -18.3016 85.3226 110.79 0.103456 1.85784 10.5485 10.2976 1.34248 -178.179 43.5 -4.2e-05 1e-05 -5.32821 -8.30581 -1.18701 42.3722 1.9e-05 -7.10543e-15 76.0215 0.677775 3.30212 17.3 -4.44089e-16 3e-06 21.4546 -1e-06 0.003093 0.103456 1.85782 -10.5485 4.50039 -10.1508 171.792 43.5 -2.7e-05 4e-06 -16.8547 11.2992 2.35784 42.3723 0 1e-05 82.8378 8.16655 -5.48259 17.3 -6e-06 1.7e-05 21.4546 -1.9e-05 -0.003116 6.90197 -2.60373 -3e-06 7.1622 -0.0213908 -0.0193976 12.5881 1e-05 8e-06 4.31048 0.0109903 -0.0116709 12.3432 -1.8e-05 -5e-06 3.99175 0.0727809 -0.00211674 25.8329 2.3e-05 7e-06 5.22335 -2.08387 -6.47972 11.7666 -8e-06 -6e-06 -19.1107 -6.63962 10.9921 19.7459 -1.48035 6.0001 176.186 -1.54168 -93.723 11.2841 1.8e-05 -2e-05 13.8244 -21.2163 24.1318 33 -1.3e-05 1.9e-05 -21.6807 -0.446185 -19.5005 25.2 3.2e-05 1.1e-05 9.77214 28.8739 -3.93523 19.7461 -1.48036 -6.00008 177.591 5.58008 90.7447 11.2841 0 -1e-06 2.4038 13.5604 -15.5847 33.0001 1.6e-05 -1e-06 -22.8148 0.534341 17.7751 25.1998 0.000123 0.000432 8.19842 -12.4784 2.18112 
